# xmcd CD database file
#
# Track frame offsets:
#	150
#	19758
#	38813
#	55455
#	70014
#	94520
#	108045
#	125318
#	141926
#	164614
#	174706
#	193268
#	212696
#
# Disc length: 3020 seconds
#
# Revision: 0
# Processed by: cddbd v1.5.2PL0 Copyright (c) Steve Scherf et al.
# Submitted via: CDex 1.51
#
DISCID=b60bca0d
DTITLE=Andreas Vollenweider - Midnight Clear
DYEAR=2006
DGENRE=New Age
TTITLE0=The Holly And The Ivy
TTITLE1=Over The Hills And Over The Vale
TTITLE2=Midnight Clear
TTITLE3=The Coventry Carol
TTITLE4=The Wexford Carol
TTITLE5=Suspended Note
TTITLE6=The Yorkshire Wassail
TTITLE7=What Child Is This
TTITLE8=Carol Of The Drum
TTITLE9=Forgive
TTITLE10=Jesu, Joy Of Man's Desiring
TTITLE11=Child In A Manger
TTITLE12=Hymn To The Secret Heart
EXTD=YEAR: 2006
EXTT0=
EXTT1=
EXTT2=
EXTT3=
EXTT4=
EXTT5=
EXTT6=
EXTT7=
EXTT8=
EXTT9=
EXTT10=
EXTT11=
EXTT12=
PLAYORDER=
